<?xml version="1.0" standalone="no"?>
<!DOCTYPE svg PUBLIC "-//W3C//DTD SVG 20010904//EN"
 "http://www.w3.org/TR/2001/REC-SVG-20010904/DTD/svg10.dtd">
<svg version="1.0" xmlns="http://www.w3.org/2000/svg"
 width="260.000000pt" height="260.000000pt" viewBox="0 0 260.000000 260.000000"
 preserveAspectRatio="xMidYMid meet">
<metadata>
Created by potrace 1.11, written by Peter Selinger 2001-2013
</metadata>
<g transform="translate(0.000000,260.000000) scale(0.100000,-0.100000)"
fill="#000000" stroke="none">
<path d="M1213 2413 c-24 -21 -44 -58 -37 -66 3 -3 17 -3 30 -1 16 3 24 0 24
-9 0 -9 -9 -13 -25 -12 -14 2 -25 -2 -25 -8 0 -8 -3 -7 -9 1 -9 15 -17 15 -43
1 -11 -6 -19 -5 -23 1 -4 6 -12 7 -18 3 -7 -5 -31 -9 -54 -8 -24 0 -43 -3 -43
-6 0 -4 -16 -6 -35 -5 -19 1 -35 -1 -35 -5 0 -3 -11 -5 -25 -4 -14 2 -25 0
-25 -4 0 -4 -8 -7 -17 -7 -10 -1 -38 -4 -63 -9 -25 -4 -51 -8 -57 -8 -7 0 -13
-4 -13 -9 0 -5 -4 -7 -9 -4 -13 8 -21 -18 -11 -34 9 -15 40 -23 40 -10 0 4 10
7 23 6 15 -1 24 -9 27 -26 5 -22 10 -25 45 -22 45 3 100 10 100 12 0 3 239 21
265 20 56 -2 121 -1 153 3 20 2 37 1 37 -3 0 -3 19 -6 43 -7 53 -2 192 -11
192 -13 0 -2 27 -7 77 -13 45 -6 47 -5 50 21 3 26 21 35 43 22 20 -11 48 -4
51 13 3 24 -30 43 -91 53 -27 4 -57 9 -65 11 -8 2 -31 5 -50 8 -19 2 -35 4
-35 5 0 2 -51 8 -117 14 -34 4 -64 8 -66 11 -3 3 -11 0 -19 -6 -9 -9 -13 -8
-13 0 0 13 -22 10 -32 -4 -5 -6 -8 -5 -8 3 0 10 -14 13 -50 11 -27 -2 -53 0
-56 4 -8 8 -7 8 59 11 26 2 47 -1 47 -6 0 -5 4 -7 9 -3 18 11 7 47 -22 71 -35
29 -94 32 -124 7z"/>
<path d="M1150 2160 c0 -3 -30 -5 -68 -6 -63 -1 -172 -11 -217 -20 -11 -3 -39
-6 -61 -8 -23 -2 -46 -6 -51 -9 -5 -4 -27 -7 -47 -9 -21 -1 -40 -6 -42 -10 -3
-4 -20 -8 -38 -8 -17 0 -37 -5 -44 -12 -7 -7 -12 -9 -12 -6 0 4 -15 2 -32 -3
-37 -11 -58 -17 -90 -24 -28 -6 -38 -22 -38 -63 0 -31 1 -32 33 -26 17 3 39 7
47 8 13 1 15 -51 16 -411 0 -227 3 -415 6 -418 11 -11 778 -11 778 0 0 7 3 7
8 0 8 -12 102 -14 102 -2 0 5 5 5 11 2 18 -11 359 -11 359 0 0 7 3 7 8 0 8
-12 102 -14 102 -2 0 5 5 5 12 1 7 -4 25 -7 40 -7 15 1 44 2 63 2 l35 1 2 418
c3 466 -4 421 69 406 25 -5 27 -3 26 36 -1 35 -5 44 -29 56 -22 11 -28 12 -28
2 0 -9 -3 -9 -10 2 -5 8 -12 11 -16 7 -4 -4 -12 -3 -18 2 -6 6 -25 12 -41 15
-17 2 -30 5 -30 6 0 3 -41 11 -58 11 -9 0 -16 3 -13 7 2 4 -12 8 -33 10 -37 2
-76 9 -76 13 0 1 -13 3 -30 4 -16 2 -52 7 -80 11 -27 4 -62 8 -77 8 -16 1 -28
3 -28 6 0 3 -28 5 -63 4 -34 0 -77 3 -94 7 -19 4 -30 3 -27 -2 3 -5 -5 -5 -18
-1 -29 10 -99 9 -115 -1 -7 -5 -13 -4 -13 0 0 5 -18 9 -40 8 -22 0 -40 -2 -40
-5z m-296 -246 c31 -4 110 -47 123 -67 13 -20 11 -600 -3 -614 -7 -8 -23 -9
-48 -3 -23 5 -36 4 -36 -2 0 -6 -6 -5 -15 2 -12 10 -15 10 -15 0 0 -10 -3 -10
-15 0 -8 7 -15 8 -15 3 0 -10 -60 -8 -87 2 -7 2 -13 -1 -13 -7 0 -7 -5 -6 -15
2 -12 10 -15 10 -15 0 0 -10 -3 -10 -15 0 -8 7 -15 8 -15 3 0 -11 -30 -11 -49
1 -7 5 -11 19 -8 32 2 13 0 24 -5 24 -5 0 -6 5 -2 11 11 18 10 109 -1 109 -7
0 -7 3 0 8 6 4 10 30 10 57 0 28 -4 53 -10 57 -7 5 -7 8 0 8 6 0 10 25 10 55
0 30 -4 55 -10 55 -7 0 -7 3 0 8 6 4 10 30 10 57 0 28 -4 53 -10 57 -6 5 -6 8
2 8 6 0 9 9 6 21 -9 34 17 68 75 94 30 14 58 22 63 19 5 -3 17 0 26 5 10 6 25
8 33 5 8 -3 28 -7 44 -10z m476 4 c0 3 5 1 12 -6 7 -7 19 -12 28 -12 9 0 33
-14 52 -30 l36 -31 0 -305 0 -306 -24 5 c-13 2 -24 0 -24 -6 0 -5 -7 -4 -15 3
-10 8 -15 9 -15 1 0 -7 -8 -8 -25 -1 -14 5 -25 6 -25 2 0 -8 -85 -6 -107 3 -7
2 -13 -1 -13 -7 0 -7 -5 -6 -15 2 -12 10 -15 10 -15 0 0 -10 -3 -10 -15 0 -8
7 -15 8 -15 3 0 -11 -47 -9 -58 2 -4 4 -7 140 -8 303 -1 289 0 298 20 319 12
13 27 23 34 23 6 0 12 5 12 10 0 6 9 10 20 10 11 0 20 4 20 9 0 5 14 8 31 7
16 -1 32 1 35 5 2 4 20 3 39 -1 19 -4 35 -5 35 -2z m455 -3 c16 -1 46 -9 65
-18 38 -17 101 -67 85 -67 -6 0 -8 -26 -5 -71 3 -39 3 -72 0 -74 -4 -2 -3 -29
0 -60 3 -31 3 -58 0 -60 -3 -2 -3 -29 0 -60 3 -31 3 -58 0 -60 -3 -2 -4 -28
-1 -57 3 -29 5 -77 3 -107 -3 -47 -5 -52 -23 -48 -10 3 -19 0 -19 -5 0 -6 -6
-5 -15 2 -10 8 -15 9 -15 1 0 -7 -8 -8 -25 -1 -14 5 -25 6 -25 2 0 -11 -114
-8 -122 3 -5 6 -8 6 -8 -1 0 -8 -11 -9 -35 -4 -24 5 -35 4 -36 -4 0 -6 -3 -5
-6 3 -4 11 -7 11 -13 0 -7 -10 -12 -10 -23 -1 -12 10 -14 63 -13 312 1 186 5
302 11 307 6 5 22 18 36 31 25 22 45 29 97 37 13 2 26 6 29 9 3 3 11 2 17 -1
6 -4 24 -8 41 -8z"/>
<path d="M393 1673 c-16 -6 -19 -989 -3 -1013 9 -13 10 -13 10 0 0 12 2 12 8
2 5 -7 15 -10 24 -7 12 5 14 36 14 200 -1 124 3 195 9 195 7 0 7 3 0 8 -13 9
-14 65 0 74 6 5 6 8 0 8 -6 0 -10 71 -10 192 0 117 4 196 10 200 7 5 7 8 0 8
-13 0 -14 70 0 70 6 0 7 3 0 8 -5 4 -10 15 -10 26 0 19 -31 36 -52 29z"/>
<path d="M2110 1672 c0 -7 -4 -11 -9 -8 -5 3 -9 -211 -9 -499 0 -285 4 -508 9
-511 5 -3 9 0 9 6 0 8 6 8 20 0 18 -10 24 -7 21 13 0 4 4 7 10 7 8 0 8 4 0 14
-8 10 -9 16 -1 21 6 3 7 11 3 18 -10 16 -10 57 0 57 4 0 5 5 2 11 -11 16 -12
69 -3 69 5 0 4 9 -2 19 -7 14 -6 21 3 24 9 4 9 7 0 14 -7 5 -9 14 -3 23 5 8 5
21 0 30 -5 9 -5 22 0 30 5 8 6 21 2 29 -9 20 -8 53 1 68 4 6 3 15 -3 18 -8 5
-7 11 1 21 9 11 9 17 0 28 -8 10 -9 16 -1 21 6 3 7 11 3 18 -10 16 -10 57 0
57 4 0 3 9 -3 19 -7 14 -7 22 0 26 8 5 8 11 0 20 -8 9 -8 15 0 20 6 3 7 11 3
18 -10 16 -10 57 0 57 4 0 5 5 2 11 -11 16 -12 69 -3 69 5 0 4 9 -2 19 -7 14
-6 21 3 25 9 5 9 7 0 12 -9 4 -10 11 -4 23 6 10 6 23 1 31 -5 8 -5 19 0 25 6
7 2 15 -11 23 -15 10 -19 10 -19 0 0 -9 -3 -8 -10 2 -7 11 -10 11 -10 2z"/>
<path d="M515 1061 c-3 -2 -5 -118 -5 -256 l0 -252 155 1 c97 1 155 -3 155 -9
0 -5 4 -4 9 3 4 8 12 14 16 14 4 0 12 -6 16 -14 5 -7 9 -8 9 -2 0 14 30 14 30
0 0 -6 4 -5 9 2 11 17 21 17 32 0 5 -7 9 -8 9 -3 0 7 186 10 540 9 391 -1 540
2 541 10 6 92 2 489 -6 494 -11 8 -1503 10 -1510 3z m795 -151 c0 -5 6 -7 13
-5 16 6 60 -59 59 -87 -2 -40 -8 -58 -24 -76 -34 -35 -48 -42 -87 -42 -59 0
-101 40 -108 103 -4 35 -2 47 7 47 7 0 10 3 7 7 -9 9 33 54 44 47 5 -3 9 0 9
5 0 6 18 11 40 11 22 0 40 -4 40 -10z"/>
<path d="M508 453 c-2 -25 -8 -37 -20 -39 -10 -1 -20 2 -24 7 -3 5 -12 5 -22
0 -9 -4 -34 -7 -56 -5 -53 5 -80 -10 -66 -36 8 -14 8 -20 0 -20 -7 0 -8 -6 -1
-19 6 -10 9 -20 6 -22 -3 -3 203 -3 286 0 9 1 34 18 56 39 41 40 77 48 94 21
14 -23 11 -32 -21 -62 -16 -16 -30 -33 -30 -38 0 -5 -6 -9 -12 -10 -7 -1 -35
-25 -62 -55 l-49 -54 692 0 692 0 -22 31 c-12 17 -28 33 -35 36 -8 3 -11 9 -8
14 3 5 -3 9 -12 9 -10 0 -15 2 -12 5 3 3 -15 25 -38 49 -48 48 -52 57 -28 80
24 25 42 19 86 -25 l41 -41 126 0 c69 0 132 0 139 1 16 1 13 91 -3 92 -5 1
-18 5 -27 10 -10 5 -19 5 -22 0 -6 -10 -56 -8 -74 2 -5 4 -12 1 -15 -5 -3 -10
-7 -10 -21 1 -9 7 -16 19 -15 25 1 6 1 19 0 29 -1 16 -42 17 -760 17 l-760 0
-3 -37z"/>
</g>
</svg>
